<svg width="24" height="24" viewBox="0 0 24 24" fill="none" xmlns="http://www.w3.org/2000/svg">
<path d="M18.0158 0H5.98415C2.6792 0 0 2.6792 0 5.98415V18.0158C0 21.3208 2.6792 24 5.98415 24H18.0158C21.3208 24 24 21.3208 24 18.0158V5.98415C24 2.6792 21.3208 0 18.0158 0Z" fill="black"/>
<path d="M16.2024 6.43752C16.1082 6.42984 16.0218 6.42599 15.943 6.42599C15.2053 6.42599 14.4964 6.66997 13.8145 7.156C13.315 7.5114 12.9192 8.01665 12.6272 8.66597V6.59121H8.7236V18.7132L10.7234 17.4069L12.7233 18.7132V13.2708C12.754 12.3775 12.9154 11.7262 13.2055 11.319C13.4956 10.9117 13.849 10.6524 14.264 10.5429C14.6789 10.4334 15.0824 10.3776 15.4743 10.3776C15.6472 10.3776 15.8028 10.3815 15.9449 10.3892C16.0852 10.3969 16.2504 10.4084 16.4386 10.4238V6.4721C16.3752 6.45673 16.2984 6.44521 16.2043 6.43752H16.2024Z" fill="white"/>
</svg>
